<mxfile host="app.diagrams.net" modified="2021-04-08T19:04:35.422Z" agent="5.0 (Windows NT 10.0; Win64; x64) AppleWebKit/537.36 (KHTML, like Gecko) Chrome/89.0.4389.114 Safari/537.36" etag="PPnyVFAoGTKLY2OtdXIh" version="14.5.6" type="github">
  <diagram id="oDinmVPbJpocvENnk0rR" name="Page-1">
    <mxGraphModel dx="824" dy="922" grid="1" gridSize="10" guides="1" tooltips="1" connect="1" arrows="1" fold="1" page="1" pageScale="1" pageWidth="827" pageHeight="1169" math="0" shadow="0">
      <root>
        <mxCell id="0" />
        <mxCell id="1" parent="0" />
        <mxCell id="HB3lRC_UBX1p_E5hOv9Z-24" style="edgeStyle=orthogonalEdgeStyle;rounded=0;orthogonalLoop=1;jettySize=auto;html=1;exitX=0;exitY=0.5;exitDx=0;exitDy=0;entryX=1;entryY=0.5;entryDx=0;entryDy=0;" edge="1" parent="1" source="HB3lRC_UBX1p_E5hOv9Z-1" target="HB3lRC_UBX1p_E5hOv9Z-4">
          <mxGeometry relative="1" as="geometry" />
        </mxCell>
        <mxCell id="HB3lRC_UBX1p_E5hOv9Z-25" style="edgeStyle=orthogonalEdgeStyle;rounded=0;orthogonalLoop=1;jettySize=auto;html=1;exitX=1;exitY=0.5;exitDx=0;exitDy=0;entryX=0;entryY=0.5;entryDx=0;entryDy=0;" edge="1" parent="1" source="HB3lRC_UBX1p_E5hOv9Z-1" target="HB3lRC_UBX1p_E5hOv9Z-3">
          <mxGeometry relative="1" as="geometry" />
        </mxCell>
        <mxCell id="HB3lRC_UBX1p_E5hOv9Z-1" value="Do you want to play a game of blackjack y or n" style="rounded=0;whiteSpace=wrap;html=1;" vertex="1" parent="1">
          <mxGeometry x="280" y="160" width="120" height="60" as="geometry" />
        </mxCell>
        <mxCell id="HB3lRC_UBX1p_E5hOv9Z-35" value="" style="edgeStyle=orthogonalEdgeStyle;rounded=0;orthogonalLoop=1;jettySize=auto;html=1;" edge="1" parent="1" source="HB3lRC_UBX1p_E5hOv9Z-2" target="HB3lRC_UBX1p_E5hOv9Z-1">
          <mxGeometry relative="1" as="geometry" />
        </mxCell>
        <mxCell id="HB3lRC_UBX1p_E5hOv9Z-2" value="Start" style="rounded=0;whiteSpace=wrap;html=1;" vertex="1" parent="1">
          <mxGeometry x="280" y="70" width="120" height="60" as="geometry" />
        </mxCell>
        <mxCell id="HB3lRC_UBX1p_E5hOv9Z-26" style="edgeStyle=orthogonalEdgeStyle;rounded=0;orthogonalLoop=1;jettySize=auto;html=1;exitX=0.5;exitY=1;exitDx=0;exitDy=0;entryX=0.5;entryY=0;entryDx=0;entryDy=0;" edge="1" parent="1" source="HB3lRC_UBX1p_E5hOv9Z-3" target="HB3lRC_UBX1p_E5hOv9Z-5">
          <mxGeometry relative="1" as="geometry" />
        </mxCell>
        <mxCell id="HB3lRC_UBX1p_E5hOv9Z-3" value="n" style="rounded=0;whiteSpace=wrap;html=1;" vertex="1" parent="1">
          <mxGeometry x="480" y="160" width="120" height="60" as="geometry" />
        </mxCell>
        <mxCell id="HB3lRC_UBX1p_E5hOv9Z-27" style="edgeStyle=orthogonalEdgeStyle;rounded=0;orthogonalLoop=1;jettySize=auto;html=1;exitX=0.5;exitY=1;exitDx=0;exitDy=0;" edge="1" parent="1" source="HB3lRC_UBX1p_E5hOv9Z-4" target="HB3lRC_UBX1p_E5hOv9Z-6">
          <mxGeometry relative="1" as="geometry" />
        </mxCell>
        <mxCell id="HB3lRC_UBX1p_E5hOv9Z-4" value="y" style="rounded=0;whiteSpace=wrap;html=1;" vertex="1" parent="1">
          <mxGeometry x="80" y="160" width="120" height="60" as="geometry" />
        </mxCell>
        <mxCell id="HB3lRC_UBX1p_E5hOv9Z-5" value="End" style="rounded=0;whiteSpace=wrap;html=1;" vertex="1" parent="1">
          <mxGeometry x="480" y="240" width="120" height="60" as="geometry" />
        </mxCell>
        <mxCell id="HB3lRC_UBX1p_E5hOv9Z-28" style="edgeStyle=orthogonalEdgeStyle;rounded=0;orthogonalLoop=1;jettySize=auto;html=1;exitX=0.5;exitY=1;exitDx=0;exitDy=0;entryX=0.5;entryY=0;entryDx=0;entryDy=0;" edge="1" parent="1" source="HB3lRC_UBX1p_E5hOv9Z-6" target="HB3lRC_UBX1p_E5hOv9Z-7">
          <mxGeometry relative="1" as="geometry" />
        </mxCell>
        <mxCell id="HB3lRC_UBX1p_E5hOv9Z-6" value="your cards [a, b], current score: z.&amp;nbsp;" style="rounded=0;whiteSpace=wrap;html=1;" vertex="1" parent="1">
          <mxGeometry x="80" y="280" width="120" height="60" as="geometry" />
        </mxCell>
        <mxCell id="HB3lRC_UBX1p_E5hOv9Z-29" style="edgeStyle=orthogonalEdgeStyle;rounded=0;orthogonalLoop=1;jettySize=auto;html=1;exitX=0.5;exitY=1;exitDx=0;exitDy=0;entryX=0.5;entryY=0;entryDx=0;entryDy=0;" edge="1" parent="1" source="HB3lRC_UBX1p_E5hOv9Z-7" target="HB3lRC_UBX1p_E5hOv9Z-8">
          <mxGeometry relative="1" as="geometry" />
        </mxCell>
        <mxCell id="HB3lRC_UBX1p_E5hOv9Z-7" value="computer draws 2 cards but only shows 1." style="rounded=0;whiteSpace=wrap;html=1;" vertex="1" parent="1">
          <mxGeometry x="80" y="400" width="120" height="60" as="geometry" />
        </mxCell>
        <mxCell id="HB3lRC_UBX1p_E5hOv9Z-14" style="edgeStyle=orthogonalEdgeStyle;rounded=0;orthogonalLoop=1;jettySize=auto;html=1;exitX=1;exitY=0.5;exitDx=0;exitDy=0;entryX=0;entryY=0.5;entryDx=0;entryDy=0;" edge="1" parent="1" source="HB3lRC_UBX1p_E5hOv9Z-8" target="HB3lRC_UBX1p_E5hOv9Z-10">
          <mxGeometry relative="1" as="geometry" />
        </mxCell>
        <mxCell id="HB3lRC_UBX1p_E5hOv9Z-15" style="edgeStyle=orthogonalEdgeStyle;rounded=0;orthogonalLoop=1;jettySize=auto;html=1;exitX=0.5;exitY=1;exitDx=0;exitDy=0;entryX=0.5;entryY=0;entryDx=0;entryDy=0;" edge="1" parent="1" source="HB3lRC_UBX1p_E5hOv9Z-8" target="HB3lRC_UBX1p_E5hOv9Z-11">
          <mxGeometry relative="1" as="geometry" />
        </mxCell>
        <mxCell id="HB3lRC_UBX1p_E5hOv9Z-8" value="type y to draw another card, type n to pass:&amp;nbsp;" style="rounded=0;whiteSpace=wrap;html=1;" vertex="1" parent="1">
          <mxGeometry x="80" y="510" width="120" height="60" as="geometry" />
        </mxCell>
        <mxCell id="HB3lRC_UBX1p_E5hOv9Z-12" style="edgeStyle=orthogonalEdgeStyle;rounded=0;orthogonalLoop=1;jettySize=auto;html=1;exitX=0;exitY=0.5;exitDx=0;exitDy=0;entryX=0;entryY=0.5;entryDx=0;entryDy=0;" edge="1" parent="1" source="HB3lRC_UBX1p_E5hOv9Z-9" target="HB3lRC_UBX1p_E5hOv9Z-8">
          <mxGeometry relative="1" as="geometry">
            <mxPoint x="40" y="540" as="targetPoint" />
            <Array as="points">
              <mxPoint x="40" y="730" />
              <mxPoint x="40" y="540" />
            </Array>
          </mxGeometry>
        </mxCell>
        <mxCell id="HB3lRC_UBX1p_E5hOv9Z-9" value="&lt;span&gt;your cards [a, b, c], current score: z.&amp;nbsp;&lt;/span&gt;" style="rounded=0;whiteSpace=wrap;html=1;" vertex="1" parent="1">
          <mxGeometry x="80" y="700" width="120" height="60" as="geometry" />
        </mxCell>
        <mxCell id="HB3lRC_UBX1p_E5hOv9Z-17" style="edgeStyle=orthogonalEdgeStyle;rounded=0;orthogonalLoop=1;jettySize=auto;html=1;exitX=0.5;exitY=1;exitDx=0;exitDy=0;entryX=0.5;entryY=0;entryDx=0;entryDy=0;" edge="1" parent="1" source="HB3lRC_UBX1p_E5hOv9Z-10" target="HB3lRC_UBX1p_E5hOv9Z-13">
          <mxGeometry relative="1" as="geometry" />
        </mxCell>
        <mxCell id="HB3lRC_UBX1p_E5hOv9Z-19" style="edgeStyle=orthogonalEdgeStyle;rounded=0;orthogonalLoop=1;jettySize=auto;html=1;entryX=0.5;entryY=0;entryDx=0;entryDy=0;" edge="1" parent="1" source="HB3lRC_UBX1p_E5hOv9Z-10" target="HB3lRC_UBX1p_E5hOv9Z-18">
          <mxGeometry relative="1" as="geometry" />
        </mxCell>
        <mxCell id="HB3lRC_UBX1p_E5hOv9Z-10" value="n" style="rounded=0;whiteSpace=wrap;html=1;" vertex="1" parent="1">
          <mxGeometry x="360" y="510" width="120" height="60" as="geometry" />
        </mxCell>
        <mxCell id="HB3lRC_UBX1p_E5hOv9Z-16" style="edgeStyle=orthogonalEdgeStyle;rounded=0;orthogonalLoop=1;jettySize=auto;html=1;exitX=0.5;exitY=1;exitDx=0;exitDy=0;entryX=0.5;entryY=0;entryDx=0;entryDy=0;" edge="1" parent="1" source="HB3lRC_UBX1p_E5hOv9Z-11" target="HB3lRC_UBX1p_E5hOv9Z-9">
          <mxGeometry relative="1" as="geometry" />
        </mxCell>
        <mxCell id="HB3lRC_UBX1p_E5hOv9Z-11" value="y" style="rounded=0;whiteSpace=wrap;html=1;" vertex="1" parent="1">
          <mxGeometry x="80" y="610" width="120" height="60" as="geometry" />
        </mxCell>
        <mxCell id="HB3lRC_UBX1p_E5hOv9Z-21" style="edgeStyle=orthogonalEdgeStyle;rounded=0;orthogonalLoop=1;jettySize=auto;html=1;exitX=0.5;exitY=1;exitDx=0;exitDy=0;entryX=0;entryY=0.5;entryDx=0;entryDy=0;" edge="1" parent="1" source="HB3lRC_UBX1p_E5hOv9Z-13" target="HB3lRC_UBX1p_E5hOv9Z-20">
          <mxGeometry relative="1" as="geometry" />
        </mxCell>
        <mxCell id="HB3lRC_UBX1p_E5hOv9Z-13" value="Your final hand: [8, 8, 3], final score: 19" style="rounded=0;whiteSpace=wrap;html=1;" vertex="1" parent="1">
          <mxGeometry x="280" y="610" width="120" height="60" as="geometry" />
        </mxCell>
        <mxCell id="HB3lRC_UBX1p_E5hOv9Z-22" style="edgeStyle=orthogonalEdgeStyle;rounded=0;orthogonalLoop=1;jettySize=auto;html=1;exitX=0.5;exitY=1;exitDx=0;exitDy=0;entryX=1;entryY=0.5;entryDx=0;entryDy=0;" edge="1" parent="1" source="HB3lRC_UBX1p_E5hOv9Z-18" target="HB3lRC_UBX1p_E5hOv9Z-20">
          <mxGeometry relative="1" as="geometry" />
        </mxCell>
        <mxCell id="HB3lRC_UBX1p_E5hOv9Z-18" value="Computer&#39;s final hand: [7, 4, 10], final score: 21" style="rounded=0;whiteSpace=wrap;html=1;" vertex="1" parent="1">
          <mxGeometry x="440" y="610" width="120" height="60" as="geometry" />
        </mxCell>
        <mxCell id="HB3lRC_UBX1p_E5hOv9Z-23" style="edgeStyle=orthogonalEdgeStyle;rounded=0;orthogonalLoop=1;jettySize=auto;html=1;exitX=0.5;exitY=1;exitDx=0;exitDy=0;entryX=0.5;entryY=0;entryDx=0;entryDy=0;" edge="1" parent="1" source="HB3lRC_UBX1p_E5hOv9Z-20" target="HB3lRC_UBX1p_E5hOv9Z-1">
          <mxGeometry relative="1" as="geometry">
            <Array as="points">
              <mxPoint x="420" y="780" />
              <mxPoint x="680" y="780" />
              <mxPoint x="680" y="140" />
              <mxPoint x="340" y="140" />
            </Array>
          </mxGeometry>
        </mxCell>
        <mxCell id="HB3lRC_UBX1p_E5hOv9Z-20" value="You lose/ You win" style="rounded=0;whiteSpace=wrap;html=1;" vertex="1" parent="1">
          <mxGeometry x="360" y="700" width="120" height="60" as="geometry" />
        </mxCell>
        <mxCell id="HB3lRC_UBX1p_E5hOv9Z-30" value="While Loop" style="text;html=1;strokeColor=none;fillColor=none;align=center;verticalAlign=middle;whiteSpace=wrap;rounded=0;" vertex="1" parent="1">
          <mxGeometry x="640" y="420" width="40" height="20" as="geometry" />
        </mxCell>
        <mxCell id="HB3lRC_UBX1p_E5hOv9Z-31" value="Stored in list" style="text;html=1;strokeColor=none;fillColor=none;align=center;verticalAlign=middle;whiteSpace=wrap;rounded=0;" vertex="1" parent="1">
          <mxGeometry x="210" y="300" width="40" height="20" as="geometry" />
        </mxCell>
        <mxCell id="HB3lRC_UBX1p_E5hOv9Z-32" value="Stored in list" style="text;html=1;strokeColor=none;fillColor=none;align=center;verticalAlign=middle;whiteSpace=wrap;rounded=0;" vertex="1" parent="1">
          <mxGeometry x="210" y="420" width="40" height="20" as="geometry" />
        </mxCell>
        <mxCell id="HB3lRC_UBX1p_E5hOv9Z-33" value="While Loop" style="text;html=1;strokeColor=none;fillColor=none;align=center;verticalAlign=middle;whiteSpace=wrap;rounded=0;" vertex="1" parent="1">
          <mxGeometry y="620" width="40" height="20" as="geometry" />
        </mxCell>
        <mxCell id="HB3lRC_UBX1p_E5hOv9Z-34" value="If Else" style="text;html=1;strokeColor=none;fillColor=none;align=center;verticalAlign=middle;whiteSpace=wrap;rounded=0;" vertex="1" parent="1">
          <mxGeometry x="400" y="630" width="40" height="20" as="geometry" />
        </mxCell>
      </root>
    </mxGraphModel>
  </diagram>
</mxfile>
